<svg width="40" height="40" viewBox="0 0 40 40" fill="none" xmlns="http://www.w3.org/2000/svg">
<path d="M28 13.333C28 10.6808 26.9464 8.1373 25.0711 6.26194C23.1957 4.38658 20.6522 3.33301 18 3.33301C15.3478 3.33301 12.8043 4.38658 10.9289 6.26194C9.05357 8.1373 8 10.6808 8 13.333C8 24.9997 3 28.333 3 28.333H33C33 28.333 28 24.9997 28 13.333Z" stroke="#1C170D" stroke-width="2" stroke-linecap="round" stroke-linejoin="round"/>
<path d="M20.8834 35C20.5903 35.5051 20.1698 35.9244 19.6637 36.2159C19.1577 36.5073 18.584 36.6608 18 36.6608C17.4161 36.6608 16.8423 36.5073 16.3363 36.2159C15.8303 35.9244 15.4097 35.5051 15.1167 35" stroke="#1C170D" stroke-width="2" stroke-linecap="round" stroke-linejoin="round"/>
</svg>
